<svg id="visual" viewBox="0 0 1920 1080" width="1920" height="1080" xmlns="http://www.w3.org/2000/svg" xmlns:xlink="http://www.w3.org/1999/xlink" version="1.1"><rect x="0" y="0" width="1920" height="1080" fill="#0d7c64"></rect><path d="M0 918L53.3 915.7C106.7 913.3 213.3 908.7 320 925.8C426.7 943 533.3 982 640 984.5C746.7 987 853.3 953 960 850.3C1066.7 747.7 1173.3 576.3 1280 426.3C1386.7 276.3 1493.3 147.7 1600 123.8C1706.7 100 1813.3 181 1866.7 221.5L1920 262L1920 1081L1866.7 1081C1813.3 1081 1706.7 1081 1600 1081C1493.3 1081 1386.7 1081 1280 1081C1173.3 1081 1066.7 1081 960 1081C853.3 1081 746.7 1081 640 1081C533.3 1081 426.7 1081 320 1081C213.3 1081 106.7 1081 53.3 1081L0 1081Z" fill="#189176"></path><path d="M0 884L53.3 877.2C106.7 870.3 213.3 856.7 320 832.8C426.7 809 533.3 775 640 761.2C746.7 747.3 853.3 753.7 960 687.2C1066.7 620.7 1173.3 481.3 1280 483.7C1386.7 486 1493.3 630 1600 745.3C1706.7 860.7 1813.3 947.3 1866.7 990.7L1920 1034L1920 1081L1866.7 1081C1813.3 1081 1706.7 1081 1600 1081C1493.3 1081 1386.7 1081 1280 1081C1173.3 1081 1066.7 1081 960 1081C853.3 1081 746.7 1081 640 1081C533.3 1081 426.7 1081 320 1081C213.3 1081 106.7 1081 53.3 1081L0 1081Z" fill="#1a977b"></path><path d="M0 362L53.3 417.2C106.7 472.3 213.3 582.7 320 573.3C426.7 564 533.3 435 640 442.7C746.7 450.3 853.3 594.7 960 673.2C1066.7 751.7 1173.3 764.3 1280 707.7C1386.7 651 1493.3 525 1600 520.5C1706.7 516 1813.3 633 1866.7 691.5L1920 750L1920 1081L1866.7 1081C1813.3 1081 1706.7 1081 1600 1081C1493.3 1081 1386.7 1081 1280 1081C1173.3 1081 1066.7 1081 960 1081C853.3 1081 746.7 1081 640 1081C533.3 1081 426.7 1081 320 1081C213.3 1081 106.7 1081 53.3 1081L0 1081Z" fill="#1c9e81"></path><path d="M0 918L53.3 913.3C106.7 908.7 213.3 899.3 320 861.2C426.7 823 533.3 756 640 753.3C746.7 750.7 853.3 812.3 960 814.5C1066.7 816.7 1173.3 759.3 1280 687.8C1386.7 616.3 1493.3 530.7 1600 560.8C1706.7 591 1813.3 737 1866.7 810L1920 883L1920 1081L1866.7 1081C1813.3 1081 1706.7 1081 1600 1081C1493.3 1081 1386.7 1081 1280 1081C1173.3 1081 1066.7 1081 960 1081C853.3 1081 746.7 1081 640 1081C533.3 1081 426.7 1081 320 1081C213.3 1081 106.7 1081 53.3 1081L0 1081Z" fill="#1ea486"></path><path d="M0 929L53.3 898.5C106.7 868 213.3 807 320 830.3C426.7 853.7 533.3 961.3 640 981.8C746.7 1002.3 853.3 935.7 960 884C1066.7 832.3 1173.3 795.7 1280 797C1386.7 798.3 1493.3 837.7 1600 869.7C1706.7 901.7 1813.3 926.3 1866.7 938.7L1920 951L1920 1081L1866.7 1081C1813.3 1081 1706.7 1081 1600 1081C1493.3 1081 1386.7 1081 1280 1081C1173.3 1081 1066.7 1081 960 1081C853.3 1081 746.7 1081 640 1081C533.3 1081 426.7 1081 320 1081C213.3 1081 106.7 1081 53.3 1081L0 1081Z" fill="#20aa8c"></path><path d="M0 647L53.3 647.7C106.7 648.3 213.3 649.7 320 700C426.7 750.3 533.3 849.7 640 867.7C746.7 885.7 853.3 822.3 960 808.7C1066.7 795 1173.3 831 1280 853.7C1386.7 876.3 1493.3 885.7 1600 864.8C1706.7 844 1813.3 793 1866.7 767.5L1920 742L1920 1081L1866.7 1081C1813.3 1081 1706.7 1081 1600 1081C1493.3 1081 1386.7 1081 1280 1081C1173.3 1081 1066.7 1081 960 1081C853.3 1081 746.7 1081 640 1081C533.3 1081 426.7 1081 320 1081C213.3 1081 106.7 1081 53.3 1081L0 1081Z" fill="#22b191"></path><path d="M0 1019L53.3 975.8C106.7 932.7 213.3 846.3 320 813.3C426.7 780.3 533.3 800.7 640 821.5C746.7 842.3 853.3 863.7 960 878.5C1066.7 893.3 1173.3 901.7 1280 906.2C1386.7 910.7 1493.3 911.3 1600 893.7C1706.7 876 1813.3 840 1866.7 822L1920 804L1920 1081L1866.7 1081C1813.3 1081 1706.7 1081 1600 1081C1493.3 1081 1386.7 1081 1280 1081C1173.3 1081 1066.7 1081 960 1081C853.3 1081 746.7 1081 640 1081C533.3 1081 426.7 1081 320 1081C213.3 1081 106.7 1081 53.3 1081L0 1081Z" fill="#23b797"></path><path d="M0 880L53.3 889.2C106.7 898.3 213.3 916.7 320 918.2C426.7 919.7 533.3 904.3 640 927.8C746.7 951.3 853.3 1013.7 960 1017.7C1066.7 1021.7 1173.3 967.3 1280 950.5C1386.7 933.7 1493.3 954.3 1600 978.5C1706.7 1002.7 1813.3 1030.3 1866.7 1044.2L1920 1058L1920 1081L1866.7 1081C1813.3 1081 1706.7 1081 1600 1081C1493.3 1081 1386.7 1081 1280 1081C1173.3 1081 1066.7 1081 960 1081C853.3 1081 746.7 1081 640 1081C533.3 1081 426.7 1081 320 1081C213.3 1081 106.7 1081 53.3 1081L0 1081Z" fill="#25be9d"></path></svg>